<?xml version="1.0" standalone="no"?>
<!DOCTYPE svg PUBLIC "-//W3C//DTD SVG 20010904//EN"
 "http://www.w3.org/TR/2001/REC-SVG-20010904/DTD/svg10.dtd">
<svg version="1.0" xmlns="http://www.w3.org/2000/svg"
 width="700.000000pt" height="700.000000pt" viewBox="0 0 700.000000 700.000000"
 preserveAspectRatio="xMidYMid meet">
<metadata>
Created by potrace 1.14, written by Peter Selinger 2001-2017
</metadata>
<g transform="translate(0.000000,700.000000) scale(0.100000,-0.100000)"
fill="#000000" stroke="none">
<path d="M178 6677 c-43 -9 -97 -43 -130 -82 -51 -59 -48 54 -46 -2255 3
-2045 4 -2147 21 -2178 28 -51 87 -101 135 -115 34 -10 417 -13 1808 -13 1757
1 1764 1 1764 -19 1 -11 2 -360 3 -775 l2 -755 22 -41 c40 -75 117 -125 197
-127 17 -1 53 5 81 13 47 13 82 46 558 519 883 878 1189 1181 1196 1182 3 1
238 2 521 3 566 3 551 1 617 65 18 17 40 45 50 63 17 31 18 138 21 2178 2
2365 7 2198 -60 2269 -17 18 -52 43 -77 54 l-46 21 -3297 0 c-1813 1 -3316 -3
-3340 -7z m2902 -1265 c68 -32 129 -96 144 -152 14 -54 37 -167 42 -205 3 -22
9 -62 14 -90 5 -27 12 -84 15 -125 4 -41 9 -93 11 -115 6 -53 6 -421 0 -460
-2 -16 -7 -52 -11 -80 -72 -569 -372 -928 -844 -1010 -125 -22 -244 -22 -301
-1 -129 48 -194 211 -132 333 46 90 121 133 244 139 306 15 460 164 533 512 8
40 15 84 15 96 l0 24 -311 0 c-171 1 -325 4 -342 8 -45 9 -94 49 -117 94 -19
38 -20 57 -17 487 l2 448 30 42 c27 38 52 55 109 73 10 3 210 5 445 4 412 0
427 -1 471 -22z m1700 -2 c85 -44 138 -121 155 -225 8 -51 9 -55 20 -115 34
-179 49 -359 49 -580 0 -147 -6 -237 -20 -321 -2 -15 -6 -45 -9 -67 -22 -174
-120 -420 -224 -562 -155 -211 -399 -346 -681 -376 -159 -17 -233 -4 -297 51
-112 95 -114 271 -4 367 50 44 90 57 188 64 237 14 365 95 457 287 40 83 63
165 88 318 l5 27 -322 0 c-351 1 -371 3 -423 59 -50 55 -51 59 -52 514 0 398
1 429 19 470 24 57 60 89 114 103 28 7 189 11 468 10 l424 0 45 -24z"/>
</g>
</svg>
